<?xml version="1.0" encoding="UTF-8"?>
<!-- Generated by Pixelmator Pro 3.7 -->
<svg width="686" height="551" viewBox="0 0 686 551" xmlns="http://www.w3.org/2000/svg">
    <path id="Shape-copy" fill="#fe5e8d" fill-rule="evenodd" stroke="none" d="M 382.217072 329.955688 C 369.218445 342.691833 360.91806 350.237946 355.385559 354.94165 C 349.853058 359.645386 341.421631 366.091431 336.649048 369.266235 C 331.876465 372.44104 324.520813 376.444977 320.303101 378.163849 C 314.397461 380.570679 310.466766 381.273376 303.204315 381.220551 C 296.753326 381.173645 291.530548 380.301178 286.673401 378.459106 C 282.768036 376.977997 276.94162 373.450134 273.725708 370.619385 C 270.509827 367.788605 266.415192 362.584656 264.626587 359.055023 C 262.572754 355.002014 261.13855 349.695618 260.733673 344.65271 L 260.092682 336.667908 L 251.785721 344.819641 C 247.21698 349.30307 239.919662 356.038696 235.569794 359.78772 C 231.219925 363.536682 223.780624 368.928223 219.037979 371.76886 C 214.295486 374.609528 207.425491 377.821533 203.77153 378.906647 C 200.117584 379.99176 194.139801 380.879578 190.487701 380.879578 C 186.835587 380.879578 180.741623 379.717529 176.945694 378.297241 C 173.14946 376.876892 167.17276 373.133698 163.663696 369.978699 C 160.154633 366.823822 155.935379 361.903259 154.287369 359.04425 C 152.639526 356.185181 150.341949 351.016815 149.181885 347.559021 C 148.021729 344.101227 146.759445 338.303833 146.376801 334.675964 C 145.68103 328.079803 145.68103 328.079803 132.281158 341.025757 C 124.91124 348.146057 113.532272 357.565857 106.994652 361.95874 C 100.456955 366.351563 91.430969 371.626495 86.936974 373.680725 C 82.442902 375.734985 76.218933 378.208496 73.105797 379.177429 C 69.992661 380.146332 62.919056 381.280212 57.386551 381.697113 C 50.027534 382.251648 45.142063 381.893646 39.185551 380.363403 C 34.707439 379.212952 28.567276 376.820465 25.540709 375.046753 C 22.514063 373.273071 17.77433 369.558472 15.008003 366.792084 C 12.241599 364.025696 8.562167 358.669159 6.831351 354.888672 C 5.100612 351.108215 3.076709 344.088318 2.333824 339.288971 C 1.337682 332.853302 1.378049 327.596771 2.487696 319.262604 C 3.315231 313.047455 5.746109 302.726074 7.889656 296.326202 C 10.033279 289.9263 14.509702 279.26358 17.837337 272.631256 C 21.164898 265.998932 27.838282 254.682526 32.666962 247.483673 C 37.49564 240.284821 46.507042 228.709015 52.692177 221.759644 C 58.877388 214.810303 69.253769 204.664215 75.750793 199.212799 C 82.247894 193.761414 91.374947 186.83551 96.03318 183.821899 C 100.691406 180.808319 109.178719 176.104919 114.893875 173.369934 C 120.609024 170.634979 130.057404 167.195587 135.890289 165.726929 C 143.712845 163.757294 148.998154 163.201508 156.03331 163.608734 C 162.711914 163.995361 167.696457 165.133942 172.661209 167.406891 C 176.560898 169.1922 181.885269 172.608398 184.493347 174.998444 C 189.235077 179.343964 189.235077 179.343964 201.597214 151.544678 C 208.396454 136.255096 221.341995 108.75119 230.365143 90.424866 C 239.38829 72.098541 251.364395 48.334045 256.978699 37.614929 C 264.88446 22.520508 268.769409 16.550964 274.206757 11.14325 C 279.228119 6.149048 282.875183 3.699463 287.015839 2.540222 C 290.199677 1.648804 296.781097 0.956665 301.641327 1.002136 C 307.443817 1.056519 312.97171 2.017944 317.741058 3.802429 C 321.735931 5.297058 327.500641 8.821045 330.551849 11.633545 C 335.882202 16.546875 336.08313 16.995667 335.683441 23.094543 C 335.329346 28.497375 333.182037 33.090576 321.253662 53.960846 C 313.546082 67.446259 302.889038 86.684143 297.571411 96.711761 C 292.253815 106.73938 283.335022 124.279785 277.751892 135.690521 C 272.168732 147.101257 263.653168 165.20752 258.8284 175.926666 C 254.003632 186.645844 246.539948 203.620453 242.242416 213.648071 C 237.944885 223.67569 231.555603 239.518677 228.04393 248.854706 C 224.532272 258.190735 219.599747 272.619171 217.082687 280.917908 C 214.565475 289.216614 211.86438 300.379517 211.080048 305.724426 C 210.132568 312.180664 210.062729 316.611938 210.871765 318.926941 C 211.789627 321.553009 213.032578 322.50415 215.917252 322.787842 C 218.694016 323.060883 221.810455 321.784882 227.268051 318.140381 C 231.405945 315.377228 239.738861 308.48761 245.785706 302.830139 C 251.832535 297.172607 261.142853 287.316193 266.475372 280.926941 C 275.218536 270.450836 278.439362 264.817719 299.274994 223.561462 C 311.982483 198.399658 323.905029 175.832367 325.76944 173.411926 C 327.633881 170.991486 331.099487 167.98526 333.470734 166.731476 C 336.725616 165.010529 339.631165 164.591736 345.326538 165.022583 C 349.475952 165.336487 356.196289 166.854279 360.260681 168.395447 C 364.978302 170.184235 369.928162 173.392761 373.948639 177.267944 C 379.964478 183.066528 380.21759 183.580505 379.601959 188.748474 C 379.169556 192.378174 372.342377 207.193695 358.857483 233.766144 C 347.80246 255.550262 336.451965 279.390533 333.634064 286.744568 C 330.816315 294.098541 327.803009 303.542236 326.937958 307.73053 C 325.698853 313.729126 325.689636 316.057983 326.894226 318.70166 C 328.128113 321.410065 329.099091 321.958496 331.92572 321.54364 C 333.85202 321.260925 338.786835 319.138062 342.892029 316.826111 C 346.997253 314.514221 353.503479 310.205688 357.35022 307.251617 C 361.19696 304.297546 370.074738 295.878632 377.07843 288.542999 C 384.355499 280.921082 393.836334 269.155212 399.202301 261.087036 C 404.366577 253.32193 416.386444 231.490906 425.91333 212.5737 C 439.635376 185.325958 444.425781 176.98761 448.967041 172.44635 C 452.119843 169.293549 457.204926 165.605682 460.267181 164.251099 C 464.615204 162.327728 467.673004 161.9198 474.226227 162.388672 C 479.5466 162.769318 485.258209 164.197968 489.832794 166.292297 C 493.801086 168.10907 498.981812 171.529266 501.345215 173.892731 C 504.528442 177.075928 505.641846 179.281982 505.639832 182.402191 C 505.638306 184.831207 503.572357 190.606598 500.759674 196.044769 C 498.077148 201.231445 492.210815 212.264954 487.723572 220.56366 C 483.236176 228.862366 475.886505 243.007904 471.390808 251.998169 C 466.895294 260.988403 460.594727 274.9133 457.389587 282.942291 C 454.18457 290.971344 450.645599 301.255341 449.525116 305.795715 C 448.288757 310.805786 447.818634 315.813721 448.329132 318.53537 C 448.959991 321.897278 449.943695 323.213898 452.258911 323.794983 C 453.957428 324.221283 456.6203 324.248291 458.176361 323.855042 C 459.732422 323.461731 463.834564 321.365417 467.292358 319.196655 C 470.750153 317.027832 480.381592 308.376648 488.695465 299.97171 C 497.009308 291.566803 508.735718 278.120605 514.75415 270.091309 C 520.772583 262.061951 530.17627 248.482269 535.651184 239.914185 C 541.12616 231.346069 552.253601 212.453552 560.37915 197.930817 C 568.504517 183.408112 576.47998 170.131622 578.102356 168.427551 C 580.638428 165.763733 582.080933 165.357788 588.389893 165.532654 C 592.425781 165.644531 598.881958 166.916168 602.737 168.358521 C 606.59198 169.800903 612.405823 173.322205 615.656738 176.183624 C 618.907471 179.045074 622.438049 183.212585 623.502625 185.444824 C 624.769958 188.102509 625.234741 191.618195 624.849182 195.630402 C 624.520691 199.048676 620.777283 210.361664 616.381653 221.219604 C 612.04834 231.923798 605.086121 249.451965 600.910156 260.171112 C 596.734192 270.890289 590.315125 288.133514 586.645691 298.48938 C 582.976074 308.845276 580.09137 317.435913 580.235229 317.579651 C 580.378906 317.723389 587.560303 311.810974 596.193726 304.44101 C 604.827332 297.071014 618.891174 284.236755 627.44696 275.92041 C 636.002747 267.604095 648.349365 254.758667 654.884033 247.375 C 661.418457 239.991333 668.283752 233.420685 670.14032 232.773499 C 672.019043 232.118561 674.763733 232.058502 676.330383 232.638062 C 677.878296 233.210663 680.278076 235.53772 681.663025 237.809174 C 683.078064 240.130219 684.182983 244.157562 684.185608 247.004089 C 684.188721 250.167542 682.612976 255.36026 679.988953 260.835266 C 677.678162 265.656708 671.076782 275.542603 665.319092 282.803955 C 659.561401 290.065338 645.467651 305.546509 633.999573 317.206604 C 622.531372 328.866699 604.94397 345.866699 594.916443 354.984375 C 584.888855 364.102112 570.908752 376.598999 563.84967 382.755219 C 551.014771 393.948425 551.014771 393.948425 542.168335 414.769348 C 537.302734 426.220917 528.901855 444.357239 523.499817 455.072357 C 518.097778 465.787476 510.031006 480.400238 505.5737 487.545135 C 501.116364 494.690063 493.389587 505.520691 488.403198 511.61322 C 483.416656 517.70575 475.49527 525.892944 470.799896 529.806946 C 466.104523 533.720947 458.174072 538.954163 453.176788 541.436279 C 448.179474 543.918396 441.262207 546.682861 437.805328 547.57959 C 434.348297 548.476318 427.686432 549.491455 423.00119 549.835388 C 418.315796 550.179382 411.706726 549.966431 408.313995 549.362183 C 404.921448 548.757935 398.585724 546.510986 394.234802 544.368958 C 389.509949 542.042969 384.288422 538.162109 381.269897 534.733032 C 378.490387 531.575256 375.065735 525.916626 373.659485 522.158264 C 371.896362 517.44574 371.102814 512.2995 371.102814 505.577209 C 371.102814 500.215942 371.96756 492.509338 373.024658 488.451324 C 374.081573 484.393311 376.967926 477.226044 379.438782 472.524017 C 381.909637 467.821991 388.32486 458.716705 393.694977 452.290009 C 399.064941 445.863342 408.768036 436.019257 415.257385 430.414337 C 421.746735 424.809387 433.271271 415.555023 440.867432 409.84906 C 448.463593 404.143066 464.082611 393.27124 475.576294 385.689423 C 496.473969 371.904297 496.473969 371.904297 506.636444 348.415253 C 512.225708 335.496277 517.208435 323.794556 517.708984 322.411438 C 518.209473 321.02832 511.597046 326.722504 503.014709 335.065186 C 494.432404 343.407898 484.015564 352.922607 479.86615 356.209076 C 475.716736 359.495544 468.078217 364.711243 462.891541 367.799469 C 457.704834 370.887756 449.597412 374.596954 444.875031 376.042175 C 438.146698 378.101257 434.023682 378.550903 425.820007 378.120361 C 417.258423 377.670959 413.852356 376.833008 407.124329 373.520813 C 402.099854 371.047241 396.930359 367.235931 393.843689 363.72937 C 391.064178 360.571594 387.676361 355.011414 386.315094 351.373352 C 384.953949 347.735352 383.475067 341.42807 383.028748 337.357239 L 382.217072 329.955688 Z M 420.341095 500.330658 C 423.554993 500.330658 425.884644 498.676697 433.205292 491.197601 C 438.121979 486.174408 447.312286 474.433624 453.627869 465.106964 C 459.943634 455.780304 466.841095 444.767761 468.955566 440.634613 C 471.070038 436.501465 472.567932 432.887695 472.284119 432.604004 C 472.000488 432.320313 467.853058 435.251587 463.067749 439.11792 C 458.28241 442.984314 450.243439 449.70575 445.203186 454.054474 C 440.163086 458.403198 433.040436 465.596832 429.375275 470.040344 C 425.709961 474.483887 420.911591 481.590271 418.71225 485.832336 C 415.753296 491.53949 414.934753 494.427429 415.564819 496.937927 C 416.262268 499.716797 417.126556 500.330658 420.341095 500.330658 Z M 78.133316 332.266602 C 79.862213 331.93045 85.803307 329.458801 91.335808 326.773987 C 97.230927 323.913239 105.583015 318.303223 111.51252 313.221436 C 117.077171 308.452271 126.091873 299.232971 131.545029 292.73407 C 136.998245 286.235168 144.811356 275.825531 148.907593 269.601471 C 153.003754 263.377441 159.133316 252.761688 162.528793 246.010895 C 165.924271 239.260101 170.381287 229.510162 172.433426 224.344391 C 175.347717 217.007935 175.903809 214.266602 174.973816 211.820435 C 174.29985 210.047729 172.385391 208.337982 170.562241 207.880402 C 168.790833 207.43576 165.215164 207.611664 162.616592 208.271301 C 160.018036 208.930878 154.815842 211.015503 151.056442 212.903809 C 147.296875 214.792114 140.809143 218.77179 136.639084 221.747559 C 132.469025 224.723358 126.050049 229.861847 122.374687 233.166473 C 118.699242 236.471069 111.672295 244.040497 106.759201 249.987335 C 101.8461 255.934235 94.859291 265.386017 91.233124 270.991394 C 87.606873 276.59671 82.804214 284.801147 80.56044 289.223389 C 78.316658 293.64563 75.234375 300.422607 73.710846 304.283386 C 72.187317 308.144165 70.237015 314.236694 69.376785 317.822418 C 68.516632 321.408142 68.17144 325.770935 68.609879 327.517578 C 69.048241 329.264221 70.663101 331.184753 72.198372 331.785522 C 73.733719 332.386292 76.404419 332.602722 78.133316 332.266602 Z M 371.102814 144.47052 C 363.672272 144.455017 360.631348 143.855286 356.762512 141.642395 C 354.062042 140.097778 350.103088 136.661987 347.965149 134.007355 C 344.5112 129.719055 344.029846 128.106384 343.649048 119.547516 C 343.317047 112.084869 343.80838 108.355988 345.830109 102.998657 C 347.265381 99.195099 350.966614 92.873413 354.054962 88.95047 C 358.452576 83.364746 361.69458 80.817535 369.003998 77.204956 C 376.969757 73.268066 379.696655 72.562714 387.608368 72.392426 C 392.707275 72.282623 399.293182 72.925629 402.243835 73.821289 C 405.194336 74.716919 409.572449 77.174133 411.973022 79.281769 C 414.373444 81.389404 416.984589 85.273651 417.77536 87.913422 C 418.566284 90.553253 418.962738 95.734619 418.656219 99.427582 C 418.349731 103.120575 416.595032 109.42688 414.756714 113.441559 C 412.805847 117.702026 408.126892 124.186249 403.518097 129.016113 C 398.306396 134.477783 393.056763 138.514954 388.077454 140.890686 C 381.831055 143.870941 378.910797 144.486816 371.102814 144.47052 Z"/>
</svg>
